<?xml version="1.0" standalone="no"?>
<!DOCTYPE svg PUBLIC "-//W3C//DTD SVG 20010904//EN"
 "http://www.w3.org/TR/2001/REC-SVG-20010904/DTD/svg10.dtd">
<svg version="1.0" xmlns="http://www.w3.org/2000/svg"
 width="260.000000pt" height="260.000000pt" viewBox="0 0 260.000000 260.000000"
 preserveAspectRatio="xMidYMid meet">
<metadata>
Created by potrace 1.11, written by Peter Selinger 2001-2013
</metadata>
<g transform="translate(0.000000,260.000000) scale(0.100000,-0.100000)"
fill="#000000" stroke="none">
<path d="M687 1828 c-8 -18 -44 -96 -80 -173 -82 -176 -225 -486 -332 -720
-45 -99 -92 -199 -103 -222 -12 -23 -22 -47 -22 -53 0 -7 179 -10 560 -10 308
0 560 2 560 4 0 4 -276 605 -490 1069 -35 75 -68 137 -72 137 -4 0 -14 -15
-21 -32z m136 -378 c247 -534 327 -709 327 -719 0 -8 -139 -11 -445 -11 l-445
0 14 33 c16 38 79 175 256 557 73 157 141 307 152 333 12 26 25 44 29 40 4 -4
55 -109 112 -233z"/>
<path d="M1500 1245 l0 -595 483 2 482 3 3 593 2 593 -37 -3 -38 -3 -5 -390
-5 -390 -205 200 c-113 110 -293 287 -402 393 -190 186 -197 192 -237 192
l-41 0 0 -595z"/>
</g>
</svg>
